<svg xmlns="http://www.w3.org/2000/svg" width="379.6856689453125" height="371.09283447265625" viewBox="-92.27906799316406 -82.74864196777344 379.6856689453125 371.09283447265625"><title>Neo4j Graph Visualization</title><desc>Created using Neo4j (http://www.neo4j.com/)</desc><g class="layer relationships"><g class="relationship" transform="translate(151.86085298422415 259.3442037621041) rotate(306.0025471082173)"><path class="outline" fill="#A5ABB6" stroke="none" d="M 24.018736134675446,6.953439040707552 L 24.277555179777966,5.987513214418485 A 100.1358089802228 100.1358089802228 0 0 0 30.883929672931988,7.519934125834155 L 30.691084773945953,8.501163377811011 A 101.1358089802228 101.1358089802228 0 0 1 24.018736134675446,6.953439040707552 Z M 66.44850787188065,9.084902505257517 L 66.28779428887613,8.097901419018072 A 100.1358089802228 100.1358089802228 0 0 0 72.94066860117327,6.781937445986681 L 72.25921231119439,3.8603595632582026 L 79.87125970920287,5.678802416490699 L 73.84927698781179,10.677374622957984 L 73.16782069783291,7.755796740229507 A 101.1358089802228 101.1358089802228 0 0 1 66.44850787188065,9.084902505257517"/><text text-anchor="middle" pointer-events="none" font-size="8px" fill="#000000" x="48.55195119722356" y="12.886150876450444" font-family="sans-serif">WROTE</text></g><g class="relationship" transform="translate(151.86085298422415 259.3442037621041) rotate(306.0025471082173)"><path class="outline" fill="#A5ABB6" stroke="none" d="M 24.018736134675446,-6.953439040707552 L 24.277555179777966,-5.987513214418485 A 100.1358089802228 100.1358089802228 0 0 1 25.488982810985124,-6.304010122917347 L 25.24226161223292,-7.273096625808748 A 101.1358089802228 101.1358089802228 0 0 0 24.018736134675446,-6.953439040707552 Z M 71.9345131725179,-8.035346581843399 L 71.71955564411012,-7.058723184119984 A 100.1358089802228 100.1358089802228 0 0 1 72.94066860117327,-6.781937445986681 L 72.25921231119439,-3.8603595632582026 L 79.87125970920287,-5.678802416490699 L 73.84927698781179,-10.677374622957984 L 73.16782069783291,-7.755796740229507 A 101.1358089802228 101.1358089802228 0 0 0 71.9345131725179,-8.035346581843399"/><text text-anchor="middle" pointer-events="none" font-size="8px" fill="#000000" x="48.551951197223545" y="-6.8861508764504435" font-family="sans-serif">DIRECTED</text></g><g class="relationship" transform="translate(258.406581749202 81.09501952987614) rotate(475.7371456574789)"><path class="outline" fill="#A5ABB6" stroke="none" d="M 24.018736134675446,6.953439040707552 L 24.277555179777966,5.987513214418485 A 100.26718788309238 100.26718788309238 0 0 0 30.916345302360032,7.526608989224059 L 30.723737250731496,8.50788476006926 A 101.26718788309238 101.26718788309238 0 0 1 24.018736134675446,6.953439040707552 Z M 66.48142712437688,9.091283402990115 L 66.3209327484459,8.104246648206114 A 100.26718788309238 100.26718788309238 0 0 0 73.00639780837133,6.782540543115632 L 72.32488518335983,3.860975801072438 L 79.93696764397404,5.679271875095962 L 73.91508130838669,10.677960199173222 L 73.23356868337518,7.756395457130029 A 101.26718788309238 101.26718788309238 0 0 1 66.48142712437688,9.091283402990115"/><text text-anchor="middle" pointer-events="none" font-size="8px" fill="#000000" x="48.584781476943974" y="12.890625854173763" transform="rotate(180 48.584781476943974 9.890625854173763)" font-family="sans-serif">WROTE</text></g><g class="relationship" transform="translate(258.406581749202 81.09501952987614) rotate(475.7371456574789)"><path class="outline" fill="#A5ABB6" stroke="none" d="M 24.018736134675446,-6.953439040707552 L 24.277555179777966,-5.987513214418485 A 100.26718788309238 100.26718788309238 0 0 1 25.521024464263284,-6.31217317316829 L 25.274606976546966,-7.281336947639659 A 101.26718788309238 101.26718788309238 0 0 0 24.018736134675446,-6.953439040707552 Z M 71.96766958418418,-8.04314984593853 L 71.75299929427264,-7.066463270506418 A 100.26718788309238 100.26718788309238 0 0 1 73.00639780837133,-6.782540543115632 L 72.32488518335983,-3.860975801072438 L 79.93696764397404,-5.679271875095962 L 73.91508130838669,-10.677960199173222 L 73.23356868337518,-7.756395457130029 A 101.26718788309238 101.26718788309238 0 0 0 71.96766958418418,-8.04314984593853"/><text text-anchor="middle" pointer-events="none" font-size="8px" fill="#000000" x="48.58478147694397" y="-6.890625854173763" transform="rotate(180 48.58478147694397 -9.890625854173763)" font-family="sans-serif">DIRECTED</text></g><g class="relationship" transform="translate(143.38484300399878 -53.748645531788675) rotate(534.8222500626524)"><path class="outline" fill="#A5ABB6" stroke="none" d="M 21.40063509461097,12.933012701892217 L 21.90063509461097,12.06698729810778 A 56.7036182181975 56.7036182181975 0 0 0 23.85189503722032,13.142992579923934 L 23.386306596904234,14.027993938252855 A 57.7036182181975 57.7036182181975 0 0 1 21.40063509461097,12.933012701892217 Z M 73.82963192598089,15.627316778015746 L 73.42104077606172,14.714599257526679 A 56.7036182181975 56.7036182181975 0 0 0 75.43654344435086,13.764361537665245 L 74.10413644642006,11.076482896084677 L 81.930328107694,11.103391649423445 L 77.21308610825861,17.348199726439336 L 75.8806791103278,14.660321084858769 A 57.7036182181975 57.7036182181975 0 0 1 73.82963192598089,15.627316778015746"/><text text-anchor="middle" pointer-events="none" font-size="8px" fill="#000000" x="48.439694856370714" y="23.135101952753367" transform="rotate(180 48.439694856370714 20.135101952753367)" font-family="sans-serif">PRODUCED</text></g><g class="relationship" transform="translate(143.38484300399878 -53.748645531788675) rotate(534.8222500626524)"><path class="outline" fill="#A5ABB6" stroke="none" d="M 25 0.5 L 25.21934589376604 0.5 L 25.21934589376604 -0.5 L 25 -0.5 Z M 72.10997089376605 0.5 L 72.32931678753208 0.5 L 72.32931678753208 3.5 L 79.32931678753208 0 L 72.32931678753208 -3.5 L 72.32931678753208 -0.5 L 72.10997089376605 -0.5 Z"/><text text-anchor="middle" pointer-events="none" font-size="8px" fill="#000000" x="48.66465839376604" y="3" transform="rotate(180 48.66465839376604 0)" font-family="sans-serif">DIRECTED</text></g><g class="relationship" transform="translate(143.38484300399878 -53.748645531788675) rotate(534.8222500626524)"><path class="outline" fill="#A5ABB6" stroke="none" d="M 21.40063509461097,-12.933012701892217 L 21.90063509461097,-12.06698729810778 A 56.7036182181975 56.7036182181975 0 0 1 31.108567006769466,-16.334479564537588 L 30.77095403252726,-17.27576457962246 A 57.7036182181975 57.7036182181975 0 0 0 21.40063509461097,-12.933012701892217 Z M 66.25407955943587,-18.400769180551237 L 65.97677224579016,-17.439987907940974 A 56.7036182181975 56.7036182181975 0 0 1 75.43654344435086,-13.764361537665245 L 74.10413644642006,-11.076482896084677 L 81.930328107694,-11.103391649423445 L 77.21308610825861,-17.348199726439336 L 75.8806791103278,-14.660321084858769 A 57.7036182181975 57.7036182181975 0 0 0 66.25407955943587,-18.400769180551237"/><text text-anchor="middle" pointer-events="none" font-size="8px" fill="#000000" x="48.43969485637072" y="-17.135101952753367" transform="rotate(180 48.43969485637072 -20.135101952753367)" font-family="sans-serif">WROTE</text></g><g class="relationship" transform="translate(-63.27906661395325 98.7221927875101) rotate(432.57850631808105)"><path class="outline" fill="#A5ABB6" stroke="none" d="M 21.40063509461097,12.933012701892217 L 21.90063509461097,12.06698729810778 A 57.5996757470575 57.5996757470575 0 0 0 24.2518067466279,13.352463579543198 L 23.79262592870701,14.240806405513844 A 58.5996757470575 58.5996757470575 0 0 1 21.40063509461097,12.933012701892217 Z M 74.28305994185197,15.829182149266401 L 73.88062449023778,14.913733785193322 A 57.5996757470575 57.5996757470575 0 0 0 76.30794648662872,13.778583868566542 L 74.97421639945213,11.09136150066323 L 82.80042035959923,11.114417393138357 L 78.08625326953086,17.36154702577096 L 76.75252318235427,14.674324657867647 A 58.5996757470575 58.5996757470575 0 0 1 74.28305994185197,15.829182149266401"/><text text-anchor="middle" pointer-events="none" font-size="8px" fill="#000000" x="48.87362227535053" y="23.255152307598685" font-family="sans-serif">PRODUCED</text></g><g class="relationship" transform="translate(-63.27906661395325 98.7221927875101) rotate(432.57850631808105)"><path class="outline" fill="#A5ABB6" stroke="none" d="M 25 0.5 L 31.210251296063426 0.5 L 31.210251296063426 -0.5 L 25 -0.5 Z M 66.98368879606343 0.5 L 73.19394009212685 0.5 L 73.19394009212685 3.5 L 80.19394009212685 0 L 73.19394009212685 -3.5 L 73.19394009212685 -0.5 L 66.98368879606343 -0.5 Z"/><text text-anchor="middle" pointer-events="none" font-size="8px" fill="#000000" x="49.096970046063426" y="3" font-family="sans-serif">WROTE</text></g><g class="relationship" transform="translate(-63.27906661395325 98.7221927875101) rotate(432.57850631808105)"><path class="outline" fill="#A5ABB6" stroke="none" d="M 21.40063509461097,-12.933012701892217 L 21.90063509461097,-12.06698729810778 A 57.5996757470575 57.5996757470575 0 0 1 26.428174793368544,-14.419998972693527 L 26.006778355628857,-15.326875503573177 A 58.5996757470575 58.5996757470575 0 0 0 21.40063509461097,-12.933012701892217 Z M 72.00502010693663,-16.773931621847417 L 71.64145927034161,-15.84236116391397 A 57.5996757470575 57.5996757470575 0 0 1 76.30794648662872,-13.778583868566542 L 74.97421639945213,-11.09136150066323 L 82.80042035959923,-11.114417393138357 L 78.08625326953086,-17.36154702577096 L 76.75252318235427,-14.674324657867647 A 58.5996757470575 58.5996757470575 0 0 0 72.00502010693663,-16.773931621847417"/><text text-anchor="middle" pointer-events="none" font-size="8px" fill="#000000" x="48.873622275350534" y="-17.255152307598685" font-family="sans-serif">DIRECTED</text></g></g><g class="layer nodes"><g class="node" transform="translate(151.86085298422415,259.3442037621041)"><circle class="outline" cx="0" cy="0" r="25" fill="#F79767" stroke="#f36924" stroke-width="2px"/><text text-anchor="middle" pointer-events="none" font-family="sans-serif" dy="1.5625" font-size="25" fill="#FFFFFF"/><text text-anchor="middle" pointer-events="none" font-family="sans-serif" dy="1.5625" font-size="25" fill="#FFFFFF"/><text text-anchor="middle" pointer-events="none" x="0" y="0" font-size="10px" fill="#FFFFFF" font-family="sans-serif"> Andy</text><text text-anchor="middle" pointer-events="none" x="0" y="10" font-size="10px" fill="#FFFFFF" font-family="sans-serif"> Wacho…</text></g><g class="node" transform="translate(213.12225294820786,175.03300263415963)"><circle class="outline" cx="0" cy="0" r="25" fill="#57C7E3" stroke="#23b3d7" stroke-width="2px"/><text text-anchor="middle" pointer-events="none" font-family="sans-serif" dy="1.5625" font-size="25" fill="#2A2C34"/><text text-anchor="middle" pointer-events="none" font-family="sans-serif" dy="1.5625" font-size="25" fill="#2A2C34"/><text text-anchor="middle" pointer-events="none" x="0" y="0" font-size="10px" fill="#2A2C34" font-family="sans-serif"> Speed</text><text text-anchor="middle" pointer-events="none" x="0" y="10" font-size="10px" fill="#2A2C34" font-family="sans-serif"> Racer</text></g><g class="node" transform="translate(258.406581749202,81.09501952987614)"><circle class="outline" cx="0" cy="0" r="25" fill="#F79767" stroke="#f36924" stroke-width="2px"/><text text-anchor="middle" pointer-events="none" font-family="sans-serif" dy="1.5625" font-size="25" fill="#FFFFFF"/><text text-anchor="middle" pointer-events="none" font-family="sans-serif" dy="1.5625" font-size="25" fill="#FFFFFF"/><text text-anchor="middle" pointer-events="none" x="0" y="0" font-size="10px" fill="#FFFFFF" font-family="sans-serif"> Lana</text><text text-anchor="middle" pointer-events="none" x="0" y="10" font-size="10px" fill="#FFFFFF" font-family="sans-serif"> Wacho…</text></g><g class="node" transform="translate(143.38484300399878,-53.748645531788675)"><circle class="outline" cx="0" cy="0" r="25" fill="#F79767" stroke="#f36924" stroke-width="2px"/><text text-anchor="middle" pointer-events="none" font-family="sans-serif" dy="1.5625" font-size="25" fill="#FFFFFF"/><text text-anchor="middle" pointer-events="none" font-family="sans-serif" dy="1.5625" font-size="25" fill="#FFFFFF"/><text text-anchor="middle" pointer-events="none" x="0" y="0" font-size="10px" fill="#FFFFFF" font-family="sans-serif"> Cameron</text><text text-anchor="middle" pointer-events="none" x="0" y="10" font-size="10px" fill="#FFFFFF" font-family="sans-serif"> Crowe</text></g><g class="node" transform="translate(39.481239959869775,-44.33335924823419)"><circle class="outline" cx="0" cy="0" r="25" fill="#57C7E3" stroke="#23b3d7" stroke-width="2px"/><text text-anchor="middle" pointer-events="none" font-family="sans-serif" dy="1.5625" font-size="25" fill="#2A2C34"/><text text-anchor="middle" pointer-events="none" font-family="sans-serif" dy="1.5625" font-size="25" fill="#2A2C34"/><text text-anchor="middle" pointer-events="none" x="0" y="0" font-size="10px" fill="#2A2C34" font-family="sans-serif"> Jerry</text><text text-anchor="middle" pointer-events="none" x="0" y="10" font-size="10px" fill="#2A2C34" font-family="sans-serif"> Maguire</text></g><g class="node" transform="translate(-63.27906661395325,98.7221927875101)"><circle class="outline" cx="0" cy="0" r="25" fill="#F79767" stroke="#f36924" stroke-width="2px"/><text text-anchor="middle" pointer-events="none" font-family="sans-serif" dy="1.5625" font-size="25" fill="#FFFFFF"/><text text-anchor="middle" pointer-events="none" font-family="sans-serif" dy="1.5625" font-size="25" fill="#FFFFFF"/><text text-anchor="middle" pointer-events="none" x="0" y="0" font-size="10px" fill="#FFFFFF" font-family="sans-serif"> Nancy</text><text text-anchor="middle" pointer-events="none" x="0" y="10" font-size="10px" fill="#FFFFFF" font-family="sans-serif"> Meyers</text></g><g class="node" transform="translate(-31.784133426780993,199.0906849334098)"><circle class="outline" cx="0" cy="0" r="25" fill="#57C7E3" stroke="#23b3d7" stroke-width="2px"/><text text-anchor="middle" pointer-events="none" font-family="sans-serif" dy="1.5625" font-size="25" fill="#2A2C34"/><text text-anchor="middle" pointer-events="none" x="0" y="5" font-size="10px" fill="#2A2C34" font-family="sans-serif"> Somethi…</text></g></g></svg>