<svg xmlns="http://www.w3.org/2000/svg" width="392.3741760253906" height="380.115478515625" viewBox="-96.22110748291016 -89.98471069335938 392.3741760253906 380.115478515625"><title>Neo4j Graph Visualization</title><desc>Created using Neo4j (http://www.neo4j.com/)</desc><g class="layer relationships"><g class="relationship" transform="translate(267.15309004835314 48.147361402584096) rotate(226.59754344940268)"><path class="outline" fill="#A5ABB6" stroke="none" d="M 21.40063509461097,12.933012701892217 L 21.90063509461097,12.06698729810778 A 57.929337309902564 57.929337309902564 0 0 0 22.582038428263452,12.454273292062545 L 22.09380109231754,13.326984185651277 A 58.929337309902564 58.929337309902564 0 0 1 21.40063509461097,12.933012701892217 Z M 76.35688031199174,15.029174648312491 L 75.92430160457523,14.127578473803162 A 57.929337309902564 57.929337309902564 0 0 0 76.6286390495541,13.783762087010901 L 75.29442724101052,11.096778862287884 L 83.12063520866506,11.118431737863075 L 78.40758812761219,17.36640638664159 L 77.07337631906861,14.679423161918573 A 58.929337309902564 58.929337309902564 0 0 1 76.35688031199174,15.029174648312491"/><text text-anchor="middle" pointer-events="none" font-size="8px" fill="#000000" x="49.0333221597659" y="23.299320021864936" transform="rotate(180 49.0333221597659 20.299320021864936)" font-family="sans-serif">PublicTrans…</text></g><g class="relationship" transform="translate(194.6537144157121 -28.511994712372502) rotate(198.01971658281047)"><path class="outline" fill="#A5ABB6" stroke="none" d="M 25 0.5 L 39.31840166056252 0.5 L 39.31840166056252 -0.5 L 25 -0.5 Z M 58.65433916056252 0.5 L 72.97274082112504 0.5 L 72.97274082112504 3.5 L 79.97274082112504 0 L 72.97274082112504 -3.5 L 72.97274082112504 -0.5 L 58.65433916056252 -0.5 Z"/><text text-anchor="middle" pointer-events="none" font-size="8px" fill="#000000" x="48.98637041056252" y="3" transform="rotate(180 48.98637041056252 0)" font-family="sans-serif">trek</text></g><g class="relationship" transform="translate(94.82987380095352 -60.98470880310362) rotate(527.2497742903306)"><path class="outline" fill="#A5ABB6" stroke="none" d="M 25 0.5 L 39.59739730187252 0.5 L 39.59739730187252 -0.5 L 25 -0.5 Z M 58.93333480187252 0.5 L 73.53073210374504 0.5 L 73.53073210374504 3.5 L 80.53073210374504 0 L 73.53073210374504 -3.5 L 73.53073210374504 -0.5 L 58.93333480187252 -0.5 Z"/><text text-anchor="middle" pointer-events="none" font-size="8px" fill="#000000" x="49.26536605187252" y="3" transform="rotate(180 49.26536605187252 0)" font-family="sans-serif">trek</text></g><g class="relationship" transform="translate(-67.22110671684871 151.846824369984) rotate(406.39374410223394)"><path class="outline" fill="#A5ABB6" stroke="none" d="M 21.40063509461097,12.933012701892217 L 21.90063509461097,12.06698729810778 A 57.92111589210832 57.92111589210832 0 0 0 22.57842378665332,12.452250061036402 L 22.09012571403512,13.324926972772559 A 58.92111589210832 58.92111589210832 0 0 1 21.40063509461097,12.933012701892217 Z M 76.35267346189374,15.027221857789051 L 75.92003602732943,14.125653862453362 A 57.92111589210832 57.92111589210832 0 0 0 76.62064065298445,13.783633298640803 L 75.28644082539641,11.096644124850922 L 83.11264869642552,11.118331896567014 L 78.39957375643517,17.366285530360646 L 77.06537392884714,14.679296356570765 A 58.92111589210832 58.92111589210832 0 0 1 76.35267346189374,15.027221857789051"/><text text-anchor="middle" pointer-events="none" font-size="8px" fill="#000000" x="49.029339041131685" y="23.298218518939535" font-family="sans-serif">PublicTrans…</text></g><g class="relationship" transform="translate(5.545010615766974 228.2420708956297) rotate(378.2593359083098)"><path class="outline" fill="#A5ABB6" stroke="none" d="M 25 0.5 L 39.31645113716148 0.5 L 39.31645113716148 -0.5 L 25 -0.5 Z M 58.65238863716148 0.5 L 72.96883977432296 0.5 L 72.96883977432296 3.5 L 79.96883977432296 0 L 72.96883977432296 -3.5 L 72.96883977432296 -0.5 L 58.65238863716148 -0.5 Z"/><text text-anchor="middle" pointer-events="none" font-size="8px" fill="#000000" x="48.98441988716148" y="3" font-family="sans-serif">trek</text></g><g class="relationship" transform="translate(105.22846839202697 261.13075541380516) rotate(347.1448088750792)"><path class="outline" fill="#A5ABB6" stroke="none" d="M 25 0.5 L 39.599034674170184 0.5 L 39.599034674170184 -0.5 L 25 -0.5 Z M 58.934972174170184 0.5 L 73.53400684834037 0.5 L 73.53400684834037 3.5 L 80.53400684834037 0 L 73.53400684834037 -3.5 L 73.53400684834037 -0.5 L 58.934972174170184 -0.5 Z"/><text text-anchor="middle" pointer-events="none" font-size="8px" fill="#000000" x="49.267003424170184" y="3" font-family="sans-serif">trek</text></g><g class="relationship" transform="translate(267.15309004835314 48.147361402584096) rotate(226.59754344940268)"><path class="outline" fill="#A5ABB6" stroke="none" d="M 25 0.5 L 39.588112290678424 0.5 L 39.588112290678424 -0.5 L 25 -0.5 Z M 58.924049790678424 0.5 L 73.51216208135685 0.5 L 73.51216208135685 3.5 L 80.51216208135685 0 L 73.51216208135685 -3.5 L 73.51216208135685 -0.5 L 58.924049790678424 -0.5 Z"/><text text-anchor="middle" pointer-events="none" font-size="8px" fill="#000000" x="49.256081040678424" y="3" transform="rotate(180 49.256081040678424 0)" font-family="sans-serif">trek</text></g><g class="relationship" transform="translate(267.15309004835314 48.147361402584096) rotate(226.59754344940268)"><path class="outline" fill="#A5ABB6" stroke="none" d="M 21.40063509461097,-12.933012701892217 L 21.90063509461097,-12.06698729810778 A 57.929337309902564 57.929337309902564 0 0 1 38.239190333251,-18.43532938768295 L 38.02123318057781,-19.411287726752093 A 58.929337309902564 58.929337309902564 0 0 0 21.40063509461097,-12.933012701892217 Z M 60.07941902807055,-20.103235808452496 L 59.923060316109265,-19.115535472726215 A 57.929337309902564 57.929337309902564 0 0 1 76.6286390495541,-13.783762087010901 L 75.29442724101052,-11.096778862287884 L 83.12063520866506,-11.118431737863075 L 78.40758812761219,-17.36640638664159 L 77.07337631906861,-14.679423161918573 A 58.929337309902564 58.929337309902564 0 0 0 60.07941902807055,-20.103235808452496"/><text text-anchor="middle" pointer-events="none" font-size="8px" fill="#000000" x="49.0333221597659" y="-17.299320021864936" transform="rotate(180 49.0333221597659 -20.299320021864936)" font-family="sans-serif">road</text></g><g class="relationship" transform="translate(-67.22110671684871 151.846824369984) rotate(406.39374410223394)"><path class="outline" fill="#A5ABB6" stroke="none" d="M 25 0.5 L 39.58414382233725 0.5 L 39.58414382233725 -0.5 L 25 -0.5 Z M 58.92008132233725 0.5 L 73.5042251446745 0.5 L 73.5042251446745 3.5 L 80.5042251446745 0 L 73.5042251446745 -3.5 L 73.5042251446745 -0.5 L 58.92008132233725 -0.5 Z"/><text text-anchor="middle" pointer-events="none" font-size="8px" fill="#000000" x="49.25211257233725" y="3" font-family="sans-serif">trek</text></g><g class="relationship" transform="translate(-67.22110671684871 151.846824369984) rotate(406.39374410223394)"><path class="outline" fill="#A5ABB6" stroke="none" d="M 21.40063509461097,-12.933012701892217 L 21.90063509461097,-12.06698729810778 A 57.92111589210832 57.92111589210832 0 0 1 38.235247083645916,-18.434062774519866 L 38.017261884939835,-19.410014849749516 A 58.92111589210832 58.92111589210832 0 0 0 21.40063509461097,-12.933012701892217 Z M 60.0754357258307,-20.102011780609345 L 59.919053034402424,-19.114315241270646 A 57.92111589210832 57.92111589210832 0 0 1 76.62064065298445,-13.783633298640803 L 75.28644082539641,-11.096644124850922 L 83.11264869642552,-11.118331896567014 L 78.39957375643517,-17.366285530360646 L 77.06537392884714,-14.679296356570765 A 58.92111589210832 58.92111589210832 0 0 0 60.0754357258307,-20.102011780609345"/><text text-anchor="middle" pointer-events="none" font-size="8px" fill="#000000" x="49.029339041131685" y="-17.298218518939535" font-family="sans-serif">road</text></g></g><g class="layer nodes"><g class="node" transform="translate(267.15309004835314,48.147361402584096)"><circle class="outline" cx="0" cy="0" r="25" fill="#F16667" stroke="#eb2728" stroke-width="2px"/><text text-anchor="middle" pointer-events="none" font-family="sans-serif" dy="1.5625" font-size="25" fill="#FFFFFF"/><text text-anchor="middle" pointer-events="none" x="0" y="5" font-size="10px" fill="#FFFFFF" font-family="sans-serif"> Darjeeling</text></g><g class="node" transform="translate(-8.098623583763441,-37.69394143754187)"><circle class="outline" cx="0" cy="0" r="25" fill="#D9C8AE" stroke="#c0a378" stroke-width="2px"/><text text-anchor="middle" pointer-events="none" font-family="sans-serif" dy="1.5625" font-size="25" fill="#2A2C34"/><text text-anchor="middle" pointer-events="none" x="0" y="5" font-size="10px" fill="#2A2C34" font-family="sans-serif"> Sandak…</text></g><g class="node" transform="translate(-67.22110671684871,151.846824369984)"><circle class="outline" cx="0" cy="0" r="25" fill="#F16667" stroke="#eb2728" stroke-width="2px"/><text text-anchor="middle" pointer-events="none" font-family="sans-serif" dy="1.5625" font-size="25" fill="#FFFFFF"/><text text-anchor="middle" pointer-events="none" x="0" y="5" font-size="10px" fill="#FFFFFF" font-family="sans-serif"> Darjeeling</text></g><g class="node" transform="translate(208.1173172395916,237.6507344536666)"><circle class="outline" cx="0" cy="0" r="25" fill="#D9C8AE" stroke="#c0a378" stroke-width="2px"/><text text-anchor="middle" pointer-events="none" font-family="sans-serif" dy="1.5625" font-size="25" fill="#2A2C34"/><text text-anchor="middle" pointer-events="none" x="0" y="5" font-size="10px" fill="#2A2C34" font-family="sans-serif"> Sandak…</text></g><g class="node" transform="translate(194.6537144157121,-28.511994712372502)"><circle class="outline" cx="0" cy="0" r="25" fill="#F16667" stroke="#eb2728" stroke-width="2px"/><text text-anchor="middle" pointer-events="none" font-family="sans-serif" dy="1.5625" font-size="25" fill="#FFFFFF"/><text text-anchor="middle" pointer-events="none" x="0" y="5" font-size="10px" fill="#FFFFFF" font-family="sans-serif"> Rimbik</text></g><g class="node" transform="translate(94.82987380095352,-60.98470880310362)"><circle class="outline" cx="0" cy="0" r="25" fill="#8DCC93" stroke="#5db665" stroke-width="2px"/><text text-anchor="middle" pointer-events="none" font-family="sans-serif" dy="1.5625" font-size="25" fill="#2A2C34"/><text text-anchor="middle" pointer-events="none" x="0" y="5" font-size="10px" fill="#2A2C34" font-family="sans-serif"> BhikeBh…</text></g><g class="node" transform="translate(5.545010615766974,228.2420708956297)"><circle class="outline" cx="0" cy="0" r="25" fill="#F16667" stroke="#eb2728" stroke-width="2px"/><text text-anchor="middle" pointer-events="none" font-family="sans-serif" dy="1.5625" font-size="25" fill="#FFFFFF"/><text text-anchor="middle" pointer-events="none" x="0" y="5" font-size="10px" fill="#FFFFFF" font-family="sans-serif"> Rimbik</text></g><g class="node" transform="translate(105.22846839202697,261.13075541380516)"><circle class="outline" cx="0" cy="0" r="25" fill="#8DCC93" stroke="#5db665" stroke-width="2px"/><text text-anchor="middle" pointer-events="none" font-family="sans-serif" dy="1.5625" font-size="25" fill="#2A2C34"/><text text-anchor="middle" pointer-events="none" x="0" y="5" font-size="10px" fill="#2A2C34" font-family="sans-serif"> BhikeBh…</text></g></g></svg>