<svg xmlns="http://www.w3.org/2000/svg" width="392.29278564453125" height="380.39239501953125" viewBox="-96.1783218383789 -90.2442626953125 392.29278564453125 380.39239501953125"><title>Neo4j Graph Visualization</title><desc>Created using Neo4j (http://www.neo4j.com/)</desc><g class="layer relationships"><g class="relationship" transform="translate(267.1144582260601 48.13562198743056) rotate(226.50698662706714)"><path class="outline" fill="#A5ABB6" stroke="none" d="M 21.40063509461097,12.933012701892217 L 21.90063509461097,12.06698729810778 A 57.91736348841376 57.91736348841376 0 0 0 22.576774052677365,12.451326545050406 L 22.088448253941753,13.323987942322695 A 58.91736348841376 58.91736348841376 0 0 1 21.40063509461097,12.933012701892217 Z M 76.3507533519452,15.026330489918102 L 75.91808910826872,14.124775360020962 A 57.91736348841376 57.91736348841376 0 0 0 76.61699005133599,13.783574511347862 L 75.28279569262675,11.096582622043313 L 83.10900351949815,11.118286322577049 L 78.39591586294831,17.366230363753928 L 77.06172150423907,14.679238474449377 A 58.91736348841376 58.91736348841376 0 0 1 76.3507533519452,15.026330489918102"/><text text-anchor="middle" pointer-events="none" font-size="8px" fill="#000000" x="49.02752108004304" y="23.29771577319292" transform="rotate(180 49.02752108004304 20.29771577319292)" font-family="sans-serif">PublicTrans…</text></g><g class="relationship" transform="translate(194.50196795795037 -28.400666173162946) rotate(198.2323394106627)"><path class="outline" fill="#A5ABB6" stroke="none" d="M 25 0.5 L 39.319455953078986 0.5 L 39.319455953078986 -0.5 L 25 -0.5 Z M 58.655393453078986 0.5 L 72.97484940615797 0.5 L 72.97484940615797 3.5 L 79.97484940615797 0 L 72.97484940615797 -3.5 L 72.97484940615797 -0.5 L 58.655393453078986 -0.5 Z"/><text text-anchor="middle" pointer-events="none" font-size="8px" fill="#000000" x="48.987424703078986" y="3" transform="rotate(180 48.987424703078986 0)" font-family="sans-serif">trek</text></g><g class="relationship" transform="translate(94.79731690857608 -61.24425865279359) rotate(527.083113240742)"><path class="outline" fill="#A5ABB6" stroke="none" d="M 25 0.5 L 39.601692537699925 0.5 L 39.601692537699925 -0.5 L 25 -0.5 Z M 58.937630037699925 0.5 L 73.53932257539985 0.5 L 73.53932257539985 3.5 L 80.53932257539985 0 L 73.53932257539985 -3.5 L 73.53932257539985 -0.5 L 58.937630037699925 -0.5 Z"/><text text-anchor="middle" pointer-events="none" font-size="8px" fill="#000000" x="49.269661287699925" y="3" transform="rotate(180 49.269661287699925 0)" font-family="sans-serif">trek</text></g><g class="relationship" transform="translate(-67.17831958689261 151.8366519747123) rotate(406.3693976515342)"><path class="outline" fill="#A5ABB6" stroke="none" d="M 21.40063509461097,12.933012701892217 L 21.90063509461097,12.06698729810778 A 57.91124134480441 57.91124134480441 0 0 0 22.57408254146359,12.449819701525904 L 22.085711500387866,13.322455780449197 A 58.91124134480441 58.91124134480441 0 0 1 21.40063509461097,12.933012701892217 Z M 76.34762060589368,15.024876093905732 L 75.91491261575507,14.123341959626721 A 57.91124134480441 57.91124134480441 0 0 0 76.61103401537065,13.783478590349478 L 75.27684858002418,11.096482270272105 L 83.1030563347756,11.118211961220606 L 78.38994792916596,17.366140350452643 L 77.05576249381949,14.67914403037527 A 58.91124134480441 58.91124134480441 0 0 1 76.34762060589368,15.024876093905732"/><text text-anchor="middle" pointer-events="none" font-size="8px" fill="#000000" x="49.024555037960425" y="23.296895530647937" font-family="sans-serif">PublicTrans…</text></g><g class="relationship" transform="translate(5.613675783123812 228.1940715290458) rotate(378.29708608620706)"><path class="outline" fill="#A5ABB6" stroke="none" d="M 25 0.5 L 39.316000216137304 0.5 L 39.316000216137304 -0.5 L 25 -0.5 Z M 58.651937716137304 0.5 L 72.96793793227461 0.5 L 72.96793793227461 3.5 L 79.96793793227461 0 L 72.96793793227461 -3.5 L 72.96793793227461 -0.5 L 58.651937716137304 -0.5 Z"/><text text-anchor="middle" pointer-events="none" font-size="8px" fill="#000000" x="48.983968966137304" y="3" font-family="sans-serif">trek</text></g><g class="relationship" transform="translate(105.27458647853825 261.1481437070708) rotate(347.1128774104583)"><path class="outline" fill="#A5ABB6" stroke="none" d="M 25 0.5 L 39.60036025850973 0.5 L 39.60036025850973 -0.5 L 25 -0.5 Z M 58.93629775850973 0.5 L 73.53665801701946 0.5 L 73.53665801701946 3.5 L 80.53665801701946 0 L 73.53665801701946 -3.5 L 73.53665801701946 -0.5 L 58.93629775850973 -0.5 Z"/><text text-anchor="middle" pointer-events="none" font-size="8px" fill="#000000" x="49.26832900850973" y="3" font-family="sans-serif">trek</text></g><g class="relationship" transform="translate(267.1144582260601 48.13562198743056) rotate(226.50698662706714)"><path class="outline" fill="#A5ABB6" stroke="none" d="M 25 0.5 L 39.58233254851804 0.5 L 39.58233254851804 -0.5 L 25 -0.5 Z M 58.91827004851804 0.5 L 73.50060259703608 0.5 L 73.50060259703608 3.5 L 80.50060259703608 0 L 73.50060259703608 -3.5 L 73.50060259703608 -0.5 L 58.91827004851804 -0.5 Z"/><text text-anchor="middle" pointer-events="none" font-size="8px" fill="#000000" x="49.25030129851804" y="3" transform="rotate(180 49.25030129851804 0)" font-family="sans-serif">trek</text></g><g class="relationship" transform="translate(267.1144582260601 48.13562198743056) rotate(226.50698662706714)"><path class="outline" fill="#A5ABB6" stroke="none" d="M 21.40063509461097,-12.933012701892217 L 21.90063509461097,-12.06698729810778 A 57.91736348841376 57.91736348841376 0 0 1 38.2334473240782,-18.43348465550293 L 38.01544932219634,-19.40943387097242 A 58.91736348841376 58.91736348841376 0 0 0 21.40063509461097,-12.933012701892217 Z M 60.07361768023331,-20.101453099607994 L 59.91722404182436,-19.11375829357467 A 57.91736348841376 57.91736348841376 0 0 1 76.61699005133599,-13.783574511347862 L 75.28279569262675,-11.096582622043313 L 83.10900351949815,-11.118286322577049 L 78.39591586294831,-17.366230363753928 L 77.06172150423907,-14.679238474449377 A 58.91736348841376 58.91736348841376 0 0 0 60.07361768023331,-20.101453099607994"/><text text-anchor="middle" pointer-events="none" font-size="8px" fill="#000000" x="49.027521080043044" y="-17.29771577319292" transform="rotate(180 49.027521080043044 -20.29771577319292)" font-family="sans-serif">road</text></g><g class="relationship" transform="translate(-67.17831958689261 151.8366519747123) rotate(406.3693976515342)"><path class="outline" fill="#A5ABB6" stroke="none" d="M 25 0.5 L 39.57937741771019 0.5 L 39.57937741771019 -0.5 L 25 -0.5 Z M 58.91531491771019 0.5 L 73.49469233542038 0.5 L 73.49469233542038 3.5 L 80.49469233542038 0 L 73.49469233542038 -3.5 L 73.49469233542038 -0.5 L 58.91531491771019 -0.5 Z"/><text text-anchor="middle" pointer-events="none" font-size="8px" fill="#000000" x="49.24734616771019" y="3" font-family="sans-serif">trek</text></g><g class="relationship" transform="translate(-67.17831958689261 151.8366519747123) rotate(406.3693976515342)"><path class="outline" fill="#A5ABB6" stroke="none" d="M 21.40063509461097,-12.933012701892217 L 21.90063509461097,-12.06698729810778 A 57.91124134480441 57.91124134480441 0 0 1 38.230510984405655,-18.43254142071317 L 38.01249209050155,-19.40848596929205 A 58.91124134480441 58.91124134480441 0 0 0 21.40063509461097,-12.933012701892217 Z M 60.07065149931948,-20.100541580199845 L 59.914239997508226,-19.112849602860173 A 57.91124134480441 57.91124134480441 0 0 1 76.61103401537065,-13.783478590349478 L 75.27684858002418,-11.096482270272105 L 83.1030563347756,-11.118211961220606 L 78.38994792916596,-17.366140350452643 L 77.05576249381949,-14.67914403037527 A 58.91124134480441 58.91124134480441 0 0 0 60.07065149931948,-20.100541580199845"/><text text-anchor="middle" pointer-events="none" font-size="8px" fill="#000000" x="49.02455503796044" y="-17.296895530647937" font-family="sans-serif">road</text></g></g><g class="layer nodes"><g class="node" transform="translate(267.1144582260601,48.13562198743056)"><circle class="outline" cx="0" cy="0" r="25" fill="#F16667" stroke="#eb2728" stroke-width="2px"/><text text-anchor="middle" pointer-events="none" font-family="sans-serif" dy="1.5625" font-size="25" fill="#FFFFFF"/><text text-anchor="middle" pointer-events="none" x="0" y="5" font-size="10px" fill="#FFFFFF" font-family="sans-serif"> Darjeeling</text></g><g class="node" transform="translate(-8.071370411884196,-37.65227317806769)"><circle class="outline" cx="0" cy="0" r="25" fill="#D9C8AE" stroke="#c0a378" stroke-width="2px"/><text text-anchor="middle" pointer-events="none" font-family="sans-serif" dy="1.5625" font-size="25" fill="#2A2C34"/><text text-anchor="middle" pointer-events="none" x="0" y="5" font-size="10px" fill="#2A2C34" font-family="sans-serif"> Sandak…</text></g><g class="node" transform="translate(-67.17831958689261,151.8366519747123)"><circle class="outline" cx="0" cy="0" r="25" fill="#F16667" stroke="#eb2728" stroke-width="2px"/><text text-anchor="middle" pointer-events="none" font-family="sans-serif" dy="1.5625" font-size="25" fill="#FFFFFF"/><text text-anchor="middle" pointer-events="none" x="0" y="5" font-size="10px" fill="#FFFFFF" font-family="sans-serif"> Darjeeling</text></g><g class="node" transform="translate(208.15291810625888,237.61019420211056)"><circle class="outline" cx="0" cy="0" r="25" fill="#D9C8AE" stroke="#c0a378" stroke-width="2px"/><text text-anchor="middle" pointer-events="none" font-family="sans-serif" dy="1.5625" font-size="25" fill="#2A2C34"/><text text-anchor="middle" pointer-events="none" x="0" y="5" font-size="10px" fill="#2A2C34" font-family="sans-serif"> Sandak…</text></g><g class="node" transform="translate(194.50196795795037,-28.400666173162946)"><circle class="outline" cx="0" cy="0" r="25" fill="#F16667" stroke="#eb2728" stroke-width="2px"/><text text-anchor="middle" pointer-events="none" font-family="sans-serif" dy="1.5625" font-size="25" fill="#FFFFFF"/><text text-anchor="middle" pointer-events="none" x="0" y="5" font-size="10px" fill="#FFFFFF" font-family="sans-serif"> Rimbik</text></g><g class="node" transform="translate(94.79731690857608,-61.24425865279359)"><circle class="outline" cx="0" cy="0" r="25" fill="#8DCC93" stroke="#5db665" stroke-width="2px"/><text text-anchor="middle" pointer-events="none" font-family="sans-serif" dy="1.5625" font-size="25" fill="#2A2C34"/><text text-anchor="middle" pointer-events="none" x="0" y="5" font-size="10px" fill="#2A2C34" font-family="sans-serif"> BhikeBh…</text></g><g class="node" transform="translate(5.613675783123812,228.1940715290458)"><circle class="outline" cx="0" cy="0" r="25" fill="#F16667" stroke="#eb2728" stroke-width="2px"/><text text-anchor="middle" pointer-events="none" font-family="sans-serif" dy="1.5625" font-size="25" fill="#FFFFFF"/><text text-anchor="middle" pointer-events="none" x="0" y="5" font-size="10px" fill="#FFFFFF" font-family="sans-serif"> Rimbik</text></g><g class="node" transform="translate(105.27458647853825,261.1481437070708)"><circle class="outline" cx="0" cy="0" r="25" fill="#8DCC93" stroke="#5db665" stroke-width="2px"/><text text-anchor="middle" pointer-events="none" font-family="sans-serif" dy="1.5625" font-size="25" fill="#2A2C34"/><text text-anchor="middle" pointer-events="none" x="0" y="5" font-size="10px" fill="#2A2C34" font-family="sans-serif"> BhikeBh…</text></g></g></svg>